<svg width="139" height="151" viewBox="0 0 139 151" fill="none" xmlns="http://www.w3.org/2000/svg">
<path d="M1.73145 68.2594C14.2895 63.1096 25.7496 55.2229 35.0321 45.3189C42.9479 36.8731 53.8064 23.1857 53.7954 10.9453C53.7934 8.63374 53.2295 6.1901 51.5875 4.56315C49.5546 2.5488 46.331 2.24996 43.5338 2.85715C35.1083 4.68616 29.4043 12.3646 26.1605 19.8658C22.5657 28.1791 21.1389 37.729 23.8859 46.3614C33.5218 76.6395 69.7467 61.3728 88.3844 49.6407C95.3661 45.2459 102.766 40.3601 107.407 33.3784C108.954 31.0501 110.195 28.3419 109.954 25.5567C109.653 22.0679 106.993 19.0924 103.802 17.6492C94.2027 13.3076 82.7713 19.2202 75.867 25.877C62.7663 38.5077 57.6369 57.5922 54.5599 74.9606C54.4796 75.4142 54.401 75.8681 54.324 76.3221C53.1808 83.0733 53.9484 90.4238 57.8937 96.0202C72.1408 116.229 108.736 104.403 124.009 91.865C127.683 88.8488 131.066 85.3454 133.193 81.0946C135.32 76.8441 136.083 71.757 134.487 67.2799C131.937 60.1304 123.804 56.081 116.219 56.3844C108.635 56.688 101.62 60.5242 95.5797 65.1212C83.6317 74.2141 73.9211 87.8295 74.0815 102.843C74.1872 112.732 78.7834 122.486 86.3428 128.863C103.822 143.609 129.053 135.466 147.438 127.17C153.504 124.433 159.913 120.114 162.299 113.608C163.329 110.799 163.489 107.585 162.263 104.856C160.629 101.217 156.724 98.9501 152.763 98.4729C135.922 96.4435 122.486 114.809 121.004 129.882C119.796 142.175 124.966 154.701 135.587 161.353C147.854 169.035 163.416 169.591 177.419 168.278" stroke="black" stroke-width="4" stroke-miterlimit="10"/>
</svg>
